{"title":"The Day The Earth Stood Still - AVM","uid":5045282,"size":262704298,"categoryP":"video","categoryS":"handheld","magnet":"?xt=urn:btih:30e12c3ff0bb31a13ec64496a6dbe3cf8a2970dc&amp;dn=The+Day+The+Earth+Stood+Still+-+AVM&amp;tr=udp%3A%2F%2Ftracker.openbittorrent.com%3A80&amp;tr=udp%3A%2F%2Fopen.demonii.com%3A1337&amp;tr=udp%3A%2F%2Ftracker.coppersurfer.tk%3A6969&amp;tr=udp%3A%2F%2Fexodus.desync.com%3A6969","seeders":0,"leechers":0,"uploader":"AVIDM","files":1,"time":1249594516,"description":"AVIDMobile - http://www.avidmobile.com.ar (Mobile media)\n\n\nVideo\nID                               : 1\nFormat                           : MPEG-4 Visual\nFormat profile                   : Advanced Simple@L5\nFormat settings, BVOP            : Yes\nFormat settings, QPel            : No\nFormat settings, GMC             : No warppoints\nFormat settings, Matrix          : Default (H.263)\nCodec ID                         : 20\nDuration                         : 1h 39mn\nBit rate mode                    : Variable\nBit rate                         : 287 Kbps\nMaximum bit rate                 : 958 Kbps\nWidth                            : 320 pixels\nHeight                           : 240 pixels\nDisplay aspect ratio             : 4/3\nFrame rate mode                  : Variable\nFrame rate                       : 23.976 fps\nMinimum frame rate               : 23.974 fps\nMaximum frame rate               : 23.981 fps\nResolution                       : 24 bits\nColorimetry                      : 4:2:0\nScan type                        : Progressive\nBits/(Pixel*Frame)               : 0.156\nStream size                      : 204 MiB (81%)\n\nAudio\nID                               : 2\nFormat                           : AAC\nFormat/Info                      : Advanced Audio Codec\nFormat version                   : Version 4\nFormat profile                   : LC\nFormat settings, SBR             : No\nCodec ID                         : 40\nDuration                         : 1h 39mn\nBit rate mode                    : Variable\nBit rate                         : 62.8 Kbps\nMaximum bit rate                 : 129 Kbps\nChannel(s)                       : 2 channels\nChannel positions                : L R\nSampling rate                    : 22.05 KHz\nResolution                       : 16 bits\nStream size                      : 44.6 MiB (18%)","torrent":{"xt":"urn:btih:30e12c3ff0bb31a13ec64496a6dbe3cf8a2970dc","amp;dn":"The+Day+The+Earth+Stood+Still+-+AVM","amp;tr":["udp%3A%2F%2Ftracker.openbittorrent.com%3A80","udp%3A%2F%2Fopen.demonii.com%3A1337","udp%3A%2F%2Ftracker.coppersurfer.tk%3A6969","udp%3A%2F%2Fexodus.desync.com%3A6969"],"infoHash":"30e12c3ff0bb31a13ec64496a6dbe3cf8a2970dc","infoHashBuffer":{"type":"Buffer","data":[48,225,44,63,240,187,49,161,62,198,68,150,166,219,227,207,138,41,112,220]},"announce":[],"urlList":[]}}